<svg width="60" height="61" viewBox="0 0 60 61" fill="none" xmlns="http://www.w3.org/2000/svg">
<path d="M20.8594 4.30854C20.8594 4.36714 46.0547 34.9765 46.418 35.3632C46.6406 35.5859 46.6406 35.246 46.6406 19.9179V4.24995H33.75C26.6602 4.24995 20.8594 4.27339 20.8594 4.30854ZM43.0664 8.64448L43.3594 8.92573V16.0039V23.082L43.0664 23.3515C42.7383 23.6562 42.1875 23.7148 41.8945 23.4687C41.6016 23.2226 31.1836 9.9101 31.0312 9.5937C30.8672 9.2187 31.0781 8.66792 31.4414 8.49214C31.6055 8.4101 33.6211 8.36323 37.2422 8.36323L42.7852 8.35151L43.0664 8.64448Z" fill="#F7931B"/>
<path d="M33.9493 10.3672C34.2188 10.7188 41.4024 19.8946 41.4375 19.9415C41.461 19.9649 41.4844 17.7969 41.4844 15.1133V10.2266H37.6641C34.6172 10.2266 33.8672 10.2618 33.9493 10.3672Z" fill="#F7931B"/>
<path d="M8.8125 6.99219C6.86719 7.71875 5.4375 9.19532 4.72266 11.2461L4.39453 12.1602L4.35938 29.0586L4.33594 45.9453L5.17969 45.1016C5.78906 44.4922 6.29297 44.1289 6.91406 43.8125C7.78125 43.3906 9.08203 43.0508 9.82031 43.0391H10.1953V24.875V6.71094L9.87891 6.72266C9.69141 6.72266 9.22266 6.85157 8.8125 6.99219Z" fill="#F7931B"/>
<path d="M12.0702 14.621V16.0859H18.5155C23.0507 16.0859 25.0311 16.121 25.2421 16.2148C25.6639 16.414 25.8514 16.9296 25.6639 17.3749C25.5819 17.5742 25.4178 17.7851 25.3007 17.8437C25.1717 17.914 22.5233 17.9609 18.5858 17.9609H12.0702V31.0859C12.0702 45.2421 12.0936 44.7851 11.4842 44.9726C11.3553 45.0195 10.91 45.0078 10.4999 44.9726C8.83581 44.7851 7.05456 45.5703 6.05846 46.9179C5.54284 47.6093 4.40612 50.1874 4.42956 50.5976C4.51159 52.0156 5.23815 53.5624 6.36315 54.6874C7.33581 55.6601 8.24987 56.1874 9.56237 56.5156C10.4413 56.7499 10.9335 56.7499 31.1132 56.7499C53.871 56.7499 52.3592 56.7968 53.578 56.0234C54.5858 55.3906 55.2655 54.371 55.535 53.1406C55.7225 52.2617 55.7225 17.6445 55.535 16.7656C55.1717 15.0663 53.953 13.7656 52.3241 13.332C51.8671 13.2148 51.1053 13.1562 50.0741 13.1562H48.5155V25.9062V38.6679L48.246 38.914C47.9647 39.1835 47.4725 39.2538 47.1327 39.0663C47.0272 39.0078 42.1639 33.1484 36.328 26.0585L25.7225 13.1679H18.9022L12.0702 13.1562V14.621ZM24.1874 53.1288C24.5624 53.4218 24.5975 54.0078 24.2694 54.4179L24.0467 54.6992H20.0389H16.0311L15.8085 54.4179C15.4803 54.0078 15.5155 53.4218 15.8905 53.1288C16.1952 52.8945 16.3358 52.8828 20.0389 52.8828C23.7421 52.8828 23.8827 52.8945 24.1874 53.1288ZM46.8632 52.9999C47.1913 53.164 47.3788 53.7148 47.2382 54.0898C46.9686 54.7929 47.4257 54.7695 37.5116 54.7343L28.453 54.6992L28.2303 54.4179C27.9374 54.0546 27.9491 53.4921 28.2655 53.1523L28.5116 52.8828H37.5819C43.1717 52.8828 46.7342 52.9296 46.8632 52.9999Z" fill="#F7931B"/>
</svg>
