<svg xmlns="http://www.w3.org/2000/svg" width="80" height="80" fill="none" viewBox="0 0 80 80"><path fill="#fff" d="M38.25 1.14065C35.7344 2.09378 34.3281 4.06253 34.3281 6.64065C34.3281 8.6719 35.2031 10.3125 36.875 11.3907C40.3438 13.6407 44.7656 11.7344 45.6406 7.62503C46.1406 5.31253 44.7812 2.59378 42.5469 1.4844C41.7969 1.1094 41.4062 1.03128 40.2344 0.984404C39.3125 0.953154 38.625 1.00003 38.25 1.14065Z"/><path fill="#fff" d="M21.3127 5.56248C20.3752 5.90623 19.4533 6.7656 18.9845 7.73435C18.6095 8.48435 18.5627 8.73435 18.6252 9.71873C18.6877 11.0312 19.0314 11.8281 19.8127 12.625C21.8439 14.6406 25.3127 14.0781 26.6252 11.5312C27.672 9.4531 26.9377 7.04685 24.8595 5.8281C24.0158 5.31248 22.297 5.18748 21.3127 5.56248Z"/><path fill="#fff" d="M55.7658 5.53116C54.0158 6.15616 52.9064 7.76553 52.922 9.65616C52.9533 13.3749 57.547 15.2499 60.1877 12.6249C60.9689 11.828 61.3127 11.0312 61.3752 9.71866C61.4377 8.73428 61.3908 8.48428 61.0158 7.73428C60.0783 5.79679 57.7502 4.81241 55.7658 5.53116Z"/><path fill="#fff" d="M37.2031 13.75C33.8906 14.625 31.2188 16.8281 29.75 19.9219C28.9688 21.5625 28.75 22.625 28.75 24.7188C28.75 26.25 28.7969 26.6719 29.0625 27.1719C29.4375 27.9219 30.1562 28.5312 30.9062 28.75C31.6875 28.9688 48.3125 28.9688 49.0938 28.75C49.8438 28.5312 50.5625 27.9219 50.9375 27.1719C51.3906 26.3125 51.375 23.3438 50.9375 21.75C49.8438 17.8125 46.7031 14.75 42.75 13.75C41.125 13.3438 38.7969 13.3438 37.2031 13.75Z"/><path fill="#fff" d="M20.9844 15.2343C18.6563 15.7499 16.3281 17.5468 15.2656 19.6874C14.3281 21.5468 14.5469 22.8124 15.875 23.3749C16.5938 23.6718 26.0781 23.703 26.1563 23.3905C26.1875 23.2968 26.3594 22.4999 26.5469 21.6405C26.7656 20.5624 27.1094 19.6093 27.625 18.5624L28.375 17.0468L27.9531 16.7343C27.125 16.1093 25.625 15.453 24.5781 15.2343C23.2813 14.953 22.2656 14.953 20.9844 15.2343Z"/><path fill="#fff" d="M55.625 15.1718C54.5469 15.3749 53.6094 15.7655 52.5625 16.4374L51.625 17.0624L52.375 18.5624C52.8906 19.6093 53.2344 20.5624 53.4531 21.6405C53.6406 22.4999 53.8125 23.2968 53.8437 23.3905C53.9219 23.703 63.4062 23.6718 64.125 23.3749C65.4375 22.828 65.6562 21.6093 64.7656 19.7499C63.1719 16.453 59.2344 14.4687 55.625 15.1718Z"/><path fill="#fff" d="M13.25 29.4063C12.9688 29.625 2.5 53.2188 2.5 53.625C2.5 54.1406 3.125 54.5469 5.39062 55.5469C8.26562 56.7969 8.45312 56.8125 8.95312 55.8438C9.5625 54.6563 19.375 32.3281 19.375 32.125C19.375 31.6406 18.7188 31.2188 16.4844 30.2344C14.0781 29.1875 13.6719 29.0781 13.25 29.4063ZM15.8438 32.0469C16.4375 32.3281 16.7812 33.1563 16.5625 33.8281C16.3438 34.5156 15.875 34.8438 15.1406 34.8438C13.9844 34.8438 13.2812 33.7031 13.8125 32.6875C14.2188 31.8906 14.9844 31.6563 15.8438 32.0469Z"/><path fill="#fff" d="M64.4531 31.7345C63.1719 32.2501 62.0312 32.7501 61.9219 32.8439C61.8125 32.9376 61.7188 33.2033 61.7188 33.4533C61.7188 33.8283 70.5938 57.047 71.0938 57.9689C71.4062 58.5626 71.875 58.4845 74.4531 57.5001C76.8438 56.5626 77.5 56.1876 77.5 55.672C77.5 55.2189 68.1094 31.172 67.8438 30.9689C67.4219 30.6564 66.8906 30.7658 64.4531 31.7345ZM66.9219 33.922C68.1719 35.2658 66.2812 37.2033 64.875 36.0158C64.0156 35.297 64.1875 33.9533 65.1875 33.5158C65.8594 33.2345 66.375 33.3595 66.9219 33.922Z"/><path fill="#fff" d="M16.2656 45.5626C14.3281 49.9533 12.8281 53.5158 12.9062 53.5783C12.9844 53.6564 13.7344 54.0158 14.5781 54.3751C16.4375 55.1876 17.0469 55.797 17.5156 57.3751L17.8437 58.422L18.4062 57.9689C19.2031 57.3283 20.1719 57.0314 21.3906 57.0314C23.5625 57.0314 25.6562 58.6876 26.0312 60.7189C26.125 61.2033 26.1406 61.2189 27.0156 61.2033C28.4219 61.2033 29.4687 61.6251 30.4844 62.6408C30.9687 63.1251 31.4375 63.7658 31.5469 64.0783L31.7187 64.6408L32.9375 64.5626C35.0156 64.4533 36.6719 65.3439 37.5781 67.0783L38.0156 67.9064H39.3594C40.9375 67.8908 41.875 68.2345 42.8906 69.2033C43.2344 69.5314 45.0312 70.6408 46.875 71.6564C49.7187 73.2345 50.3281 73.5158 50.875 73.5001C52.9844 73.4533 53.875 71.0158 52.3125 69.5783C52.125 69.4064 49.875 68.0783 47.3437 66.6564C44.8125 65.2189 42.6406 63.9376 42.5469 63.797C42.2344 63.3908 42.2969 62.547 42.6562 62.1876C43.2969 61.547 43.6719 61.7033 49.6875 65.0939C54.5312 67.8439 55.5156 68.3283 56.1719 68.3908C56.8125 68.4533 57.0469 68.3908 57.5 68.0939C58.5781 67.3595 58.8906 65.9064 58.1562 64.8908C57.9531 64.6095 56.2812 63.5626 53.2812 61.8751C49.5937 59.797 48.6719 59.2189 48.5156 58.8595C48.1406 57.9845 48.6094 57.172 49.5 57.1564C49.8437 57.1408 51.1875 57.8126 54.1719 59.5001C56.4687 60.797 58.625 61.9689 58.9531 62.1095C61.125 63.0158 63.0156 60.0158 61.2969 58.4064C61.0469 58.1876 58 56.3908 54.5 54.3908C49.7656 51.6876 47.9219 50.7189 47.2969 50.5939C46.0469 50.3283 44.5625 50.672 40.9375 52.0783C37.5312 53.3908 35.9531 53.8439 34.2187 53.9845C31.4219 54.2345 28.5937 52.9376 26.6094 50.5001C26.0781 49.8439 25.9375 49.547 25.9375 49.0626C25.9375 48.2501 26.2812 47.8751 28.2344 46.6564C31.1094 44.8439 33.2187 43.172 35.9844 40.5001C36.875 39.6408 37.1406 39.2814 37 39.1876C35.9844 38.5314 33.4531 38.5314 30.2344 39.1876C25.9062 40.0783 24.9531 40.0314 22.2812 38.8126C21.4219 38.422 20.4844 38.0001 20.2344 37.8908L19.75 37.672L16.2656 45.5626Z"/><path fill="#fff" d="M43.1875 38.7188C41.0156 39.4844 39.3906 40.625 36.4844 43.4375C34.7344 45.1094 33.125 46.3906 30.7031 48.0156L28.8438 49.2656L29.5625 49.9219C30.8906 51.125 32.5 51.6562 34.25 51.4844C35.625 51.3594 36.75 51.0156 39.75 49.8594C44.7187 47.9062 46.4687 47.625 48.7031 48.375C49.5625 48.6719 61.9844 55.7344 62.8437 56.4219L63.4219 56.875L65.375 56.0781L67.3125 55.2656L66.9531 54.3125C65.7812 51.2188 61.0625 39.1406 61.0156 39.0938C60.9844 39.0625 60.2812 39.3906 59.4219 39.8281C56.8594 41.1562 55.5156 41.1875 52.3437 39.9844C48.2969 38.4219 48.1719 38.3906 46.25 38.3281C44.5937 38.2656 44.3594 38.2969 43.1875 38.7188Z"/><path fill="#fff" d="M19.9844 59.9064C19.1406 60.4845 16.7188 65.0939 16.7188 66.1095C16.7188 67.797 18.5312 68.9376 20.0469 68.2033C20.4375 68.0158 20.8594 67.422 22.0312 65.3595C22.8438 63.922 23.5625 62.5626 23.6094 62.3126C23.7656 61.5939 23.5 60.7814 22.9062 60.1876C22.4375 59.7033 22.25 59.6251 21.4531 59.5783C20.6875 59.5158 20.4688 59.5626 19.9844 59.9064Z"/><path fill="#fff" d="M26.6406 63.7501C26.375 63.8126 26.0312 63.922 25.875 64.0157C25.7344 64.0939 24.7188 65.7032 23.6562 67.5939L21.7031 71.0157L21.75 71.922C21.8125 72.7189 21.8906 72.8907 22.375 73.3907C22.8594 73.8751 23.0781 73.9689 23.7969 74.0314C24.6875 74.0939 25.3281 73.8751 25.7969 73.3439C25.9375 73.172 26.8125 71.5782 27.7344 69.7814C29.125 67.0939 29.4219 66.4064 29.4062 65.8907C29.3438 64.4845 28.0312 63.4532 26.6406 63.7501Z"/><path fill="#fff" d="M32.2032 67.3126C31.7657 67.547 31.422 68.0939 30.047 70.7501C28.2032 74.297 28.172 74.5001 29.0782 75.547C29.9532 76.5314 31.4376 76.6095 32.4064 75.7345C32.6095 75.547 33.422 74.1564 34.2032 72.6407C35.7501 69.6407 35.8907 69.1095 35.3126 68.1564C34.672 67.1095 33.297 66.7345 32.2032 67.3126Z"/><path fill="#fff" d="M38.5159 70.625C37.9377 70.9063 37.7659 71.1719 36.4221 73.7656C34.8284 76.8594 34.7659 77.1406 35.469 78.125C35.9846 78.8438 36.6252 79.1094 37.6096 79.0313C38.7502 78.9375 39.1877 78.4688 40.6252 75.7813C41.5002 74.1719 41.7815 73.4844 41.8284 72.8906C41.9221 71.8438 41.5315 71.125 40.6252 70.6563C39.7815 70.2344 39.3284 70.2188 38.5159 70.625Z"/><path fill="#fff" d="M44.375 73.5001C44.375 73.6876 43.9844 74.6563 43.5156 75.6251C43.0313 76.5938 42.6719 77.4063 42.6875 77.4219C42.7188 77.4376 43.1563 77.6876 43.6719 77.9688C44.4219 78.3594 44.7344 78.4532 45.2188 78.3907C46.4063 78.2344 47.25 77.2813 47.25 76.0938C47.25 75.0938 46.7188 74.4063 45.3594 73.6719C44.375 73.1251 44.375 73.1251 44.375 73.5001Z"/></svg>