<svg width="60" height="61" viewBox="0 0 60 61" fill="none" xmlns="http://www.w3.org/2000/svg">
<path d="M36.5625 16.4375V30.5H42.1875H47.8125V16.4375V2.375H42.1875H36.5625V16.4375ZM41.25 7.0625V8H40.3125H39.375V7.0625V6.125H40.3125H41.25V7.0625ZM45 7.0625V8H44.0625H43.125V7.0625V6.125H44.0625H45V7.0625ZM41.25 11.75V12.6875H40.3125H39.375V11.75V10.8125H40.3125H41.25V11.75ZM45 11.75V12.6875H44.0625H43.125V11.75V10.8125H44.0625H45V11.75ZM41.25 16.4375V17.375H40.3125H39.375V16.4375V15.5H40.3125H41.25V16.4375ZM45 16.4375V17.375H44.0625H43.125V16.4375V15.5H44.0625H45V16.4375Z" fill="#F7931B"/>
<path d="M14.9766 5.66797L12.1875 8.01172V19.25V30.5H17.8125H23.4375V19.25V8.01172L20.625 5.65625C19.0781 4.36719 17.8008 3.3125 17.7891 3.32422C17.7656 3.32422 16.5 4.37891 14.9766 5.66797ZM20.625 10.8125V11.75H17.8125H15V10.8125V9.875H17.8125H20.625V10.8125ZM20.625 15.5V16.4375H17.8125H15V15.5V14.5625H17.8125H20.625V15.5Z" fill="#F7931B"/>
<path d="M25.3125 21.5938V30.5H30H34.6875V21.5938V12.6875H30H25.3125V21.5938Z" fill="#F7931B"/>
<path d="M2.8125 23.4688V30.5H6.5625H10.3125V23.4688V16.4375H6.5625H2.8125V23.4688Z" fill="#F7931B"/>
<path d="M49.6875 23.9375V30.5H53.4375H57.1875V23.9375V17.375H53.4375H49.6875V23.9375Z" fill="#F7931B"/>
<path d="M0.9375 33.3125V34.25H30H59.0625V33.3125V32.375H30H0.9375V33.3125Z" fill="#F7931B"/>
<path d="M3.19922 39.0195C3.70312 40.625 4.21875 42.0195 4.32422 42.1484C4.6875 42.5703 4.94531 42.5703 6.26953 42.1484C8.16797 41.5508 8.25 41.5625 8.92969 42.7344C9.60938 43.9062 10.6055 45.3008 11.4258 46.2383C12.293 47.2344 12.5391 47.5977 12.5391 47.9141C12.5391 48.043 12.1641 48.6523 11.7188 49.2734C10.7578 50.5977 10.6406 50.9492 11.0391 51.3945C11.3438 51.7344 15.5742 54.8164 16.0078 55.0156C16.4883 55.2383 16.875 54.9453 17.7773 53.7148C18.8203 52.2617 18.8906 52.2383 20.332 52.8711C21.6211 53.4219 23.332 53.9727 24.7031 54.2773C26.1797 54.6172 26.25 54.7109 26.25 56.5859C26.25 57.9805 26.2617 58.0625 26.543 58.332L26.8242 58.625H30H33.1758L33.457 58.332C33.7383 58.0625 33.75 57.9805 33.75 56.5859C33.75 54.6758 33.7852 54.6289 35.5078 54.2422C36.8555 53.9258 38.625 53.3398 39.8906 52.7656C41.0625 52.2383 41.2031 52.2969 42.2227 53.7148C43.125 54.9453 43.5117 55.2383 43.9922 55.0156C44.4258 54.8164 48.6562 51.7344 48.9609 51.3945C49.3594 50.9492 49.2422 50.5977 48.2812 49.2734C47.8359 48.6523 47.4609 48.043 47.4609 47.9141C47.4609 47.5977 47.707 47.2344 48.5742 46.2383C49.3945 45.3008 50.3906 43.9062 51.0703 42.7344C51.75 41.5625 51.832 41.5508 53.7305 42.1484C55.0547 42.5703 55.3125 42.5703 55.6758 42.1484C55.7812 42.0195 56.2969 40.625 56.8008 39.0195L57.7383 36.125H52.8047H47.8594L47.6484 36.793C46.8281 39.3711 44.6484 42.6172 42.4102 44.5625C39.832 46.7891 36.8438 48.2539 33.4688 48.9219C32.4023 49.1328 31.7695 49.1797 30 49.1797C27.75 49.1797 26.6953 49.0508 24.9023 48.5352C20.4727 47.2578 16.6875 44.4453 14.1797 40.5781C13.5703 39.6289 12.6328 37.6836 12.3516 36.793L12.1406 36.125H7.19531H2.26172L3.19922 39.0195Z" fill="#F7931B"/>
</svg>
