<svg width="60" height="61" viewBox="0 0 60 61" fill="none" xmlns="http://www.w3.org/2000/svg">
<path d="M53.6721 5.32812C53.1681 5.87891 53.5549 6.71094 54.3166 6.71094C54.7971 6.71094 55.1955 6.33594 55.1955 5.89062C55.1955 5.15234 54.1877 4.77734 53.6721 5.32812Z" fill="#F7931B"/>
<path d="M36.0939 5.91406C35.59 6.46484 35.9767 7.29688 36.7385 7.29688C37.2189 7.29688 37.6174 6.92188 37.6174 6.47656C37.6174 5.73828 36.6096 5.36328 36.0939 5.91406Z" fill="#F7931B"/>
<path d="M11.25 6.34766C10.1953 6.6875 9.10547 7.67188 8.64844 8.66797C8.28516 9.46484 8.28516 11.1055 8.64844 11.9023C8.97656 12.6289 9.86719 13.5664 10.6055 13.9531C11.1328 14.2344 11.3203 14.2695 12.4219 14.2695C13.5234 14.2695 13.7109 14.2344 14.2383 13.9531C14.9766 13.5664 15.8672 12.6289 16.1953 11.9023C16.5586 11.1055 16.5586 9.46484 16.1953 8.66797C15.8672 7.92969 14.9648 6.99219 14.2383 6.61719C13.7578 6.37109 13.4648 6.3125 12.5977 6.27734C12.0234 6.26562 11.4141 6.28906 11.25 6.34766Z" fill="#F7931B"/>
<path d="M47.5781 7.60156C47.0508 7.83594 46.4531 8.41016 46.1367 8.99609C45.9492 9.34766 45.8906 9.67578 45.8906 10.2852C45.8906 11.2227 46.125 11.7969 46.7812 12.418C47.3086 12.9336 47.9062 13.1562 48.75 13.1562C49.5937 13.1562 50.1914 12.9336 50.7187 12.418C51.375 11.7969 51.6094 11.2227 51.6094 10.2852C51.6094 9.67578 51.5508 9.34766 51.3633 8.99609C51.0469 8.39844 50.4492 7.82422 49.8984 7.60156C49.3477 7.36719 48.1172 7.36719 47.5781 7.60156Z" fill="#F7931B"/>
<path d="M24.9611 11.7734C24.4572 12.3242 24.8439 13.1562 25.6056 13.1562C26.0861 13.1562 26.4846 12.7812 26.4846 12.3359C26.4846 11.5977 25.4767 11.2227 24.9611 11.7734Z" fill="#F7931B"/>
<path d="M4.4533 15.875C3.9494 16.4258 4.33611 17.2578 5.09783 17.2578C5.85955 17.2578 6.24627 16.4258 5.74237 15.875C5.41424 15.5234 4.78143 15.5234 4.4533 15.875Z" fill="#F7931B"/>
<path d="M52.5002 18.2188C51.9963 18.7695 52.383 19.6016 53.1447 19.6016C53.6252 19.6016 54.0236 19.2266 54.0236 18.7812C54.0236 18.043 53.0158 17.668 52.5002 18.2188Z" fill="#F7931B"/>
<path d="M22.9102 19.3555C22.3477 19.6133 21.7734 20.1758 21.4805 20.7617C21.2812 21.1484 21.2695 21.7695 21.2344 29.5273L21.2109 37.8828H24.4336H27.6562V35.668C27.6562 33.4766 27.6562 33.4531 27.9844 32.832C28.1836 32.4336 28.5 32.0703 28.8164 31.8477C29.2734 31.5195 29.4023 31.4961 30.293 31.4961C31.1836 31.4961 31.3125 31.5195 31.7695 31.8477C32.0859 32.0703 32.4023 32.4336 32.6016 32.832C32.9297 33.4531 32.9297 33.4766 32.9297 35.668V37.8828H35.8594H38.7891V29.7266C38.7891 23.8086 38.7539 21.4414 38.6484 21.1016C38.4727 20.5039 37.6875 19.625 37.0898 19.3555C36.6562 19.1562 36.1758 19.1328 30 19.1328C23.8359 19.1328 23.3438 19.1562 22.9102 19.3555Z" fill="#F7931B"/>
<path d="M7.14844 26.75V29.6797H8.32031H9.49219V26.75V23.8203H8.32031H7.14844V26.75Z" fill="#F7931B"/>
<path d="M10.6641 26.75V29.6797H11.8359H13.0078V26.75V23.8203H11.8359H10.6641V26.75Z" fill="#F7931B"/>
<path d="M14.1797 26.75V29.6797H15.3516H16.5234V26.75V23.8203H15.3516H14.1797V26.75Z" fill="#F7931B"/>
<path d="M45.8203 24.9922V26.1641H48.457H51.0938V24.9922V23.8203H48.457H45.8203V24.9922Z" fill="#F7931B"/>
<path d="M43.4766 28.5078V29.6797H46.1133H48.75V28.5078V27.3359H46.1133H43.4766V28.5078Z" fill="#F7931B"/>
<path d="M4.125 30.9336C3.82031 31.0508 3.63281 31.6602 3.63281 32.5508C3.63281 33.6758 3.82031 34.0742 4.42969 34.2383C4.71094 34.3203 7.55859 34.3672 12.457 34.3672H20.0391V32.6094V30.8516L12.1641 30.8633C7.82812 30.8633 4.20703 30.8984 4.125 30.9336Z" fill="#F7931B"/>
<path d="M39.9609 32.6094V34.3672H47.5547C52.4414 34.3672 55.2891 34.3203 55.5703 34.2383C56.1797 34.0742 56.3672 33.6758 56.3672 32.5508C56.3672 31.625 56.1797 31.0625 55.8398 30.9219C55.7344 30.8867 52.1133 30.8516 47.8008 30.8516H39.9609V32.6094Z" fill="#F7931B"/>
<path d="M29.5197 32.7852C28.8166 33.1719 28.8283 32.9961 28.8283 41.6797V49.6016H26.0392C24.0236 49.6016 23.215 49.6367 23.1096 49.7422C23.0275 49.8242 22.9689 50.1992 22.9689 50.6211C22.9689 51.2891 22.9455 51.3711 22.6994 51.4648C22.2307 51.6406 21.6564 52.2031 21.4338 52.707C20.9885 53.668 21.2932 54.8047 22.1838 55.5078C22.6057 55.8477 22.7111 55.8711 23.5549 55.8711C24.3986 55.8711 24.5041 55.8477 24.926 55.5078C25.8166 54.8047 26.1213 53.668 25.676 52.707C25.4533 52.2031 24.8791 51.6406 24.4103 51.4648C24.2228 51.3945 24.1408 51.2656 24.1408 51.0664V50.7734H30.2932H36.4455V51.0664C36.4455 51.2656 36.3635 51.3945 36.176 51.4648C35.7072 51.6406 35.133 52.2031 34.9103 52.707C34.465 53.668 34.7697 54.8047 35.6603 55.5078C36.0822 55.8477 36.1877 55.8711 37.0314 55.8711C37.8752 55.8711 37.9807 55.8477 38.4025 55.5078C39.2932 54.8047 39.5978 53.668 39.1525 52.707C38.9299 52.2031 38.3557 51.6406 37.8869 51.4648C37.6408 51.3711 37.6174 51.2891 37.6174 50.6211C37.6174 50.1992 37.5588 49.8242 37.4767 49.7422C37.3713 49.6367 36.5627 49.6016 34.5471 49.6016H31.758V41.6797C31.758 32.9609 31.7697 33.1602 31.0432 32.7852C30.633 32.5625 29.9182 32.5625 29.5197 32.7852Z" fill="#F7931B"/>
<path d="M8.32031 45.207V54.875H9.49219H10.6641V52.5312V50.1875H14.1562C16.7227 50.1875 17.7187 50.1406 17.9297 50.0352L18.2227 49.8828L18.2578 47.2695C18.293 44.457 18.2695 44.3281 17.707 44.3281C17.1328 44.3281 17.1094 44.4453 17.1094 46.8125V49.0156H13.8867H10.6641V42.2773V35.5391H9.49219H8.32031V45.207Z" fill="#F7931B"/>
<path d="M49.3358 42.2773V49.0156H46.1132H42.8905V47.1055C42.8905 45.0547 42.8554 44.9141 42.2929 44.9141C41.7421 44.9141 41.7069 45.0664 41.7421 47.5625L41.7772 49.8828L42.0702 50.0352C42.2811 50.1406 43.2772 50.1875 45.8554 50.1875H49.3358V52.5312V54.875H50.5077H51.6796V45.207V35.5391H50.5077H49.3358V42.2773Z" fill="#F7931B"/>
<path d="M19.5703 39.2305C19.5703 39.6055 20.0859 40.4727 20.5898 40.9297C21.5742 41.8437 21.8438 41.9023 24.9375 41.9609L27.6562 42.0078V40.5312V39.0547H23.6133C20.0859 39.0547 19.5703 39.0781 19.5703 39.2305Z" fill="#F7931B"/>
<path d="M32.9297 40.5312V42.0078L35.3672 41.9609C37.5586 41.9141 37.8516 41.8906 38.3789 41.6445C39.1055 41.3164 39.7734 40.6836 40.1484 39.9687C40.6523 38.9844 40.8984 39.0547 36.6797 39.0547H32.9297V40.5312Z" fill="#F7931B"/>
</svg>
