<svg width="60" height="61" viewBox="0 0 60 61" fill="none" xmlns="http://www.w3.org/2000/svg">
<g clip-path="url(#clip0_104_512)">
<path d="M12.0706 0.757812C11.5901 0.886719 11.18 1.00391 11.1682 1.01562C11.1448 1.03906 12.6565 7.0625 13.1253 8.83203L13.2425 9.25391L14.0979 9.03125C14.555 8.90234 15.0003 8.78516 15.0823 8.76172C15.1761 8.72656 14.93 7.60156 14.2854 5.04688C13.0667 0.265625 13.1253 0.5 13.0315 0.511719C12.9846 0.511719 12.5511 0.628906 12.0706 0.757812Z" fill="#F7931B"/>
<path d="M43.9454 3.06629C43.9454 3.1366 43.8399 3.91004 43.711 4.80067C43.4415 6.64051 43.1368 7.34364 42.3282 7.96473C41.3556 8.70301 39.8087 8.74989 38.7774 8.05848C38.5313 7.90614 37.8516 7.1327 37.2657 6.35926L36.1993 4.95301L34.5587 6.1952C33.3985 7.06239 32.9532 7.47254 33.0235 7.56629C33.8087 8.5741 34.9923 10.2499 35.1212 10.5663C35.3321 11.0468 35.3438 12.0663 35.1446 12.6639C34.8399 13.6249 33.9024 14.4686 32.8829 14.6796C32.3907 14.785 31.9571 14.7616 30.586 14.5624C29.6602 14.4335 28.8868 14.3514 28.8634 14.3749C28.8048 14.4335 28.2306 18.3358 28.2657 18.371C28.2891 18.3827 28.9337 18.4882 29.7071 18.5936C31.8048 18.8866 32.2735 19.0507 32.9181 19.6952C34.0196 20.7968 34.172 22.3671 33.3048 23.6327C33.129 23.8788 32.3673 24.5585 31.6173 25.1327L30.2345 26.1757L31.4649 27.8046L32.7071 29.4452L33.879 28.5546C35.5431 27.3007 36.047 27.0546 36.9845 27.078C38.379 27.0897 39.5274 27.9686 39.9141 29.2811C40.1016 29.9374 40.1016 30.0429 39.8556 31.7186C39.7266 32.6796 39.6329 33.4882 39.6563 33.5233C39.7149 33.5702 43.629 34.1327 43.6641 34.0975C43.6759 34.0858 43.8048 33.3124 43.9337 32.3866C44.1212 31.0975 44.2501 30.5702 44.4962 30.1249C45.1056 28.9999 46.1954 28.4257 47.4845 28.5429C48.5743 28.6366 49.0899 29.035 50.3673 30.7108L51.4571 32.1405L53.0977 30.8983C54.2579 30.0311 54.7032 29.621 54.6329 29.5272C53.8477 28.5194 52.6876 26.8671 52.5587 26.5507C52.3009 25.9296 52.336 24.6991 52.6173 24.1014C52.9806 23.3514 53.7657 22.6952 54.5743 22.4608C55.2306 22.2733 55.3243 22.2733 57.0118 22.5077C57.9727 22.6366 58.7813 22.7304 58.8048 22.7069C58.8634 22.66 59.4259 18.7577 59.3907 18.7108C59.3673 18.6991 58.5938 18.5702 57.6681 18.4413C56.379 18.2538 55.8516 18.1249 55.4063 17.8788C54.2813 17.2694 53.7071 16.1796 53.8243 14.8905C53.9181 13.8007 54.3165 13.285 55.9923 12.0077C56.9884 11.246 57.3985 10.871 57.3282 10.7772C57.2696 10.6952 56.7306 9.98035 56.1329 9.17176C55.5352 8.36317 55.0196 7.68348 55.0079 7.66004C54.9845 7.6366 54.3282 8.09364 53.5431 8.67957C52.7696 9.25379 51.9259 9.79285 51.6798 9.86317C49.9806 10.3671 48.2227 9.42957 47.7306 7.77723C47.5548 7.16785 47.5665 7.02723 47.8009 5.37489C47.9298 4.41395 48.0235 3.60535 48.0001 3.58192C47.9649 3.53504 44.3087 2.97254 44.0391 2.96082C43.9806 2.96082 43.9454 3.0077 43.9454 3.06629ZM45.8204 12.7108C47.8829 13.4608 49.4181 15.2069 49.8634 17.3163C50.0743 18.3358 50.0743 18.746 49.8634 19.7538C49.336 22.2616 47.2266 24.2538 44.7071 24.6405C41.5665 25.1327 38.461 22.9413 37.7931 19.7538C37.5821 18.746 37.5821 18.3358 37.7931 17.3163C38.297 14.9022 40.2423 12.9804 42.7149 12.453C43.4884 12.2772 44.9884 12.4061 45.8204 12.7108Z" fill="#F7931B"/>
<path d="M29.2969 5.97274C24.9492 6.28915 20.7656 8.21103 17.6367 11.3399C11.8125 17.1524 10.5117 26.0704 14.4492 33.3126C15.75 35.7149 17.4727 37.6485 19.9805 39.5235C21.8203 40.8946 22.3945 41.504 22.9102 42.6056C23.4258 43.7071 23.5547 44.6915 23.5547 47.586C23.5547 49.6602 23.5899 49.9532 23.8008 50.422C24.2344 51.3946 24.9844 51.9571 26.0859 52.1798C26.5547 52.2735 28.1836 52.297 31.1719 52.2735C36.0469 52.2384 35.9883 52.2384 36.8906 51.4298C37.1484 51.1954 37.4766 50.7267 37.6289 50.3868C37.875 49.8243 37.8984 49.5665 37.9688 46.7306C38.0508 43.4727 38.0977 43.2384 38.7539 42.1134C39.2227 41.3048 39.8789 40.6602 41.1211 39.7696C42.3164 38.9259 43.6758 37.7306 44.5313 36.7813C44.9649 36.3126 45.0117 36.2188 44.8008 36.2657C44.3906 36.3712 38.2031 35.4571 37.8867 35.2345C37.3828 34.9181 37.3594 34.6251 37.6758 32.4806C38.0625 29.8673 38.0508 29.7735 37.6055 29.3985C37.2188 29.0704 36.9141 29.0235 36.5391 29.2227C36.3984 29.2931 35.5664 29.9024 34.6641 30.5704C33.7734 31.2384 32.9063 31.8243 32.7539 31.8595C32.0977 32.0235 31.9336 31.8595 29.918 29.1876C28.8516 27.7579 27.9141 26.4454 27.8555 26.2813C27.6094 25.6485 27.7969 25.4142 29.7539 23.9493C30.7734 23.1759 31.6406 22.461 31.6875 22.3556C31.875 21.8399 31.6992 21.2306 31.2891 21.0079C31.1719 20.9376 30.1289 20.7501 28.9922 20.586C27.8555 20.422 26.8008 20.2462 26.6484 20.1876C26.4961 20.129 26.2969 19.9181 26.2031 19.7306C26.0274 19.4142 26.0508 19.1446 26.4844 16.1446C26.7422 14.3751 27 12.8048 27.0703 12.6876C27.1406 12.5587 27.3281 12.3712 27.4805 12.2657C27.75 12.0899 27.9375 12.1017 30.0938 12.4063C32.3438 12.7227 32.4492 12.7227 32.7422 12.5235C33.1289 12.2774 33.3281 11.8556 33.2461 11.4923C33.1992 11.3399 32.6367 10.5079 31.9922 9.64071C31.3359 8.77353 30.7266 7.91806 30.6328 7.74228C30.3633 7.21493 30.4219 6.83993 30.8789 6.40634C31.1016 6.1954 31.2891 5.99618 31.2891 5.96103C31.2891 5.89071 30.2813 5.90243 29.2969 5.97274ZM23.5547 13.0626C23.8125 13.4727 24.0234 13.8595 24.0234 13.9298C24.0234 13.9884 23.6953 14.2931 23.2969 14.586C21.832 15.6642 20.5195 17.2345 19.6641 18.9571C18.7617 20.7501 18.3984 22.3438 18.3984 24.4298C18.3984 27.7813 19.5703 30.6876 21.8555 33.0196C23.2383 34.4376 24.3516 35.1642 26.625 36.1602C28.6055 37.0392 30.3399 38.8673 31.1367 40.9298C31.4063 41.6329 31.582 42.4063 31.6992 43.3556L31.7695 43.9767H30.7031H29.6484V43.5313C29.6484 42.3477 28.8047 40.4727 27.8672 39.5352C27.0469 38.7032 26.543 38.3751 25.1133 37.7306C23.6016 37.0392 22.8047 36.547 21.5977 35.5977C19.1016 33.6056 17.2734 30.5704 16.5586 27.2188C16.2774 25.836 16.2774 22.9532 16.5586 21.6524C17.2383 18.6524 18.4688 16.3673 20.5078 14.3165C21.4805 13.3321 22.7344 12.336 22.9922 12.336C23.0391 12.336 23.2969 12.6642 23.5547 13.0626ZM31.7578 47.6095V49.1329H30.7031H29.6484V47.6095V46.086H30.7031H31.7578V47.6095Z" fill="#F7931B"/>
<path d="M2.95326 6.83986C2.67201 7.23829 2.42592 7.61329 2.39076 7.69532C2.35561 7.78907 9.12904 12.7578 9.48061 12.8867C9.60951 12.9336 10.6876 11.2578 10.5939 11.1758C10.4181 11.0117 3.52748 6.12501 3.49232 6.12501C3.46889 6.12501 3.23451 6.45314 2.95326 6.83986Z" fill="#F7931B"/>
<path d="M4.68763 17.2579C1.40638 18.0782 0.644664 18.3126 0.656382 18.4649C0.668101 18.5704 0.761851 19.0274 0.879039 19.4845C1.0431 20.1407 1.12513 20.3048 1.27748 20.2579C1.38294 20.2228 3.21107 19.7657 5.33216 19.2384C7.46498 18.711 9.22279 18.254 9.24623 18.2423C9.31654 18.1837 8.88295 16.3204 8.80091 16.2735C8.76576 16.2501 6.9142 16.6954 4.68763 17.2579Z" fill="#F7931B"/>
<path d="M11.168 27.9219C10.9805 28.707 10.6523 29.1406 10.0078 29.4453C9.15234 29.8672 8.67188 29.75 7.13672 28.7305L5.84766 27.875L4.91016 28.8125L3.97266 29.75L4.67578 30.7461C5.68359 32.2227 5.77734 32.4219 5.71875 33.1953C5.625 34.4492 5.08594 34.8711 2.95312 35.3047L1.62891 35.5742L1.66406 36.8164L1.69922 38.0469L3.16406 38.375C5.19141 38.8203 5.63672 39.1953 5.71875 40.4961L5.76562 41.2461L4.86328 42.5703L3.96094 43.8945L4.89844 44.832L5.83594 45.7695L7.08984 44.9023L8.35547 44.0352H9.15234C10.4883 44.0352 10.957 44.5742 11.3555 46.5195C11.5078 47.2109 11.6484 47.8789 11.6719 47.9844C11.7305 48.1719 11.8945 48.1953 12.8906 48.1953C13.5234 48.1953 14.0742 48.1484 14.1094 48.1016C14.1445 48.043 14.3086 47.375 14.4727 46.6016C14.8008 45.0664 15.0586 44.5859 15.7148 44.2227C16.1953 43.9531 17.0859 43.8945 17.4961 44.1055C17.6367 44.1758 18.2695 44.5859 18.9023 45.0078L20.0508 45.7813L21.1172 44.7031L22.1953 43.6367L22.043 43.1914C21.9492 42.9453 21.7266 42.5117 21.5273 42.2422C21.1992 41.75 20.9766 41.5625 19.1953 40.2383L18.3984 39.6523L17.9766 40.2969C17.2266 41.4219 15.8555 42.3945 14.4844 42.7578C13.6641 42.9805 12.0234 42.9688 11.2383 42.7344C9.09375 42.1016 7.34766 40.2617 6.91406 38.1523C6.71484 37.1914 6.82031 35.5156 7.13672 34.6953C7.88672 32.7617 9.5625 31.2734 11.5078 30.8281C12.1758 30.6758 12.1523 30.8633 11.7188 28.918C11.3438 27.2539 11.332 27.2305 11.168 27.9219Z" fill="#F7931B"/>
<path d="M46.9102 30.6407C46.6992 30.6993 46.4414 30.8633 46.3477 31.0039C46.1953 31.25 45.5273 35.2813 45.6328 35.3868C45.7266 35.4805 46.9336 33.4532 47.4844 32.2813C48.0234 31.1446 48.0469 31.0508 47.8711 30.8516C47.625 30.5703 47.3672 30.5235 46.9102 30.6407Z" fill="#F7931B"/>
<path d="M50.2734 39.875V40.9297H53.9062H57.5508L57.5156 39.8984L57.4805 38.8789L53.8828 38.8438L50.2734 38.8203V39.875Z" fill="#F7931B"/>
<path d="M49.2308 45.0547C48.9027 45.4648 48.6332 45.8164 48.6449 45.8516C48.6449 45.8867 50.0277 47.0469 51.7035 48.4414L54.7621 50.9844L55.3832 50.2578C55.7347 49.8711 56.0043 49.4844 56.0043 49.4258C56.0043 49.3086 50.1801 44.4336 49.9574 44.3633C49.8871 44.3398 49.5707 44.6562 49.2308 45.0547Z" fill="#F7931B"/>
<path d="M44.0625 50.7148V54.2891H45.1172H46.1719V50.7148V47.1406H45.1172H44.0625V50.7148Z" fill="#F7931B"/>
<path d="M26.6016 54.2891V55.3438H30.7031H34.8047V54.2891V53.2344H30.7031H26.6016V54.2891Z" fill="#F7931B"/>
<path d="M26.625 58.3203C26.6602 59.082 26.707 59.2461 27.0117 59.6328C27.6797 60.4531 27.8672 60.5 30.668 60.5C33.3047 60.5 33.5977 60.4531 34.1484 59.9375C34.6172 59.4922 34.8047 58.9883 34.8047 58.1562V57.4531H30.6914H26.5781L26.625 58.3203Z" fill="#F7931B"/>
</g>
<defs>
<clipPath id="clip0_104_512">
<rect width="60" height="60" fill="white" transform="translate(0 0.5)"/>
</clipPath>
</defs>
</svg>
