<svg xmlns="http://www.w3.org/2000/svg" width="80" height="80" fill="none" viewBox="0 0 80 80"><g clip-path="url(#clip0_104_618)"><path fill="#fff" d="M57.7656 0.578033C57.6094 0.624908 56.7188 1.14053 55.8125 1.73428C51.2188 4.71866 46.2344 6.56241 40.6562 7.34366C39.2656 7.53116 38.6875 7.81241 38.3281 8.48428C38.0625 8.95303 38.0469 9.68741 38.0469 18.203C38.0469 28.578 38.0625 28.828 39.2344 32.3905C41.8906 40.5468 48.4062 46.7499 56.6719 48.9999C58.4219 49.4687 58.7188 49.4374 61.4844 48.4843C66.6094 46.703 71.1719 43.2187 74.1406 38.8124C75.9219 36.1874 77.0312 33.6562 77.9375 30.2343L78.3438 28.6718L78.4062 18.7343L78.4531 8.79678L78.0312 8.29678C77.4531 7.60928 77.2969 7.54678 75.375 7.26553C70.25 6.51553 64.7969 4.46866 60.7812 1.78116C58.9531 0.562408 58.5156 0.390533 57.7656 0.578033ZM61.6406 12.2499C62.1562 12.3905 63.3125 12.8593 64.2188 13.3124C65.6719 14.0312 66.0312 14.2968 67.4219 15.703C68.5 16.7812 69.1875 17.6249 69.6406 18.4374C73.0312 24.4999 71.2344 32.0312 65.4688 35.8593C61.8438 38.2655 56.8438 38.6718 52.8906 36.8905C46.25 33.8749 43.3125 25.9999 46.3906 19.4374C48.1719 15.6562 51.4219 13.0468 55.5469 12.0937C56.7969 11.8124 60.3594 11.9062 61.6406 12.2499Z"/><path fill="#fff" d="M55.9531 16.3438C52.1406 17.375 49.375 20.9688 49.375 24.9219C49.375 29.7969 53.3594 33.7812 58.2031 33.7969C60.7656 33.7969 62.8906 32.8906 64.6406 31.0312C68.0625 27.4375 68.0156 22.2344 64.5312 18.75C62.625 16.8438 60.8281 16.0781 58.2031 16.1094C57.4375 16.1094 56.4219 16.2188 55.9531 16.3438ZM59.7344 18.8906C60.2344 19.375 60.2344 19.4062 60.2812 21.0938L60.3438 22.8125H61.7344C63.3125 22.8125 64 23.0312 64.5 23.6719C65.25 24.625 65 25.9531 63.9219 26.6719C63.4531 26.9844 63.1875 27.0312 61.8594 27.0312H60.3125V28.6875V30.3438L59.7031 30.9531C59.1719 31.4844 59.0156 31.5625 58.3594 31.5625C56.7969 31.5625 56.2188 30.7812 56.125 28.5469L56.0625 27.0312H54.625C52.9688 27.0312 52.3125 26.7656 51.8438 25.9219C51.4531 25.2188 51.5469 24.1875 52.0469 23.6406C52.6875 22.9688 53.1719 22.8125 54.6562 22.8125H56.0625L56.125 21.2812C56.2188 18.9844 56.8125 18.2188 58.4062 18.3281C59.0938 18.375 59.3281 18.4688 59.7344 18.8906Z"/><path fill="#fff" d="M0 61.3281V76.875H8.04688H16.0938V61.3281V45.7812H8.04688H0V61.3281Z"/><path fill="#fff" d="M20.4219 50.8906C20.3594 50.9375 20.3125 55.4688 20.3125 60.9531V70.9062L21.7656 70.9688L23.2031 71.0312L31.6406 74.875C36.2812 76.9844 40.4375 78.8281 40.8594 78.9688C42.8438 79.6094 45.25 79.6094 47.2656 78.9688C47.7031 78.8281 53 76.3125 59.0625 73.3594C79.5156 63.4062 78.3281 64 79.0469 63.1875C79.9844 62.1094 80.2344 61 79.75 59.875C79.25 58.6406 78.0156 57.8281 76.6875 57.8125C76.125 57.8125 73.6719 58.6562 65.6406 61.5781C59.4062 63.8438 54.9531 65.5469 54.4062 65.875C53.9219 66.1719 53.0625 66.5625 52.5 66.7344C51.5312 67.0156 51.0938 67.0312 44.6562 67L37.8281 66.9531L37.3438 66.4844C36.2812 65.4688 36.4688 63.7969 37.7344 63.0781C37.9531 62.9531 40.0938 62.8594 44.7812 62.8125L51.5156 62.7344L52.1719 62.2969C53.8281 61.1875 54.1875 58.9531 52.9375 57.4375C52 56.2969 51.7812 56.25 46.4844 56.25C43.8594 56.25 41.5625 56.1875 41.25 56.0938C40.9062 56 39.5781 54.9844 37.6562 53.3594L34.625 50.7812H27.5781C23.6875 50.7812 20.4688 50.8281 20.4219 50.8906Z"/></g><defs><clipPath id="clip0_104_618"><rect width="80" height="80" fill="#fff"/></clipPath></defs></svg>