<svg width="80" height="80" viewBox="0 0 80 80" fill="none" xmlns="http://www.w3.org/2000/svg">
<path d="M42.1094 9.68769C39.9844 9.87519 37.4375 10.3908 35.4687 11.0471C33.2656 11.7658 30.0937 13.3596 28.2812 14.6408C25.2656 16.8127 21.875 20.5158 21.875 21.6408C21.875 22.5158 22.2187 22.6252 24.9687 22.6408C30.7031 22.6564 33.8594 23.6721 39.5156 27.3283C43.2187 29.7189 44.4531 30.2189 46.7187 30.2346C47.875 30.2346 48.4375 30.1564 49.25 29.8752C50.2812 29.5158 52.1875 28.4064 52.1875 28.1564C52.1875 28.0939 51.8594 27.8752 51.4687 27.6877C50.7656 27.3439 36.875 19.2658 36.7187 19.0939C36.6719 19.0627 37.2812 19.0627 38.0469 19.1252C44.8594 19.6564 50.375 22.1721 53.9844 26.4064C55.4531 28.1252 56.2656 29.3752 57.4375 31.8127C57.9844 32.9377 58.5312 33.9533 58.6562 34.0627C59.0156 34.3439 59.7031 34.1877 60.0312 33.7346C60.3281 33.3439 60.3281 33.3283 59.9531 32.3283C59.1094 30.0939 57.2812 27.0002 55.8125 25.3283L55.2187 24.6408L55.5937 23.6877C55.8125 23.1564 56.0937 22.0939 56.2344 21.2971C56.7656 18.0939 55.6875 14.8127 53.2656 12.3596C52.1406 11.2189 50.6094 10.3127 49.1719 9.93769C48.0781 9.65644 44.1406 9.51581 42.1094 9.68769Z" fill="white"/>
<path d="M22.6248 31.5157C21.3123 32.9063 19.4998 36.0157 18.5154 38.5157C18.1092 39.5626 17.9685 39.7657 17.6404 39.8126C16.5467 39.9532 14.6248 40.5626 13.5154 41.1407C11.2498 42.3126 9.17166 44.7813 8.42166 47.1876C7.67166 49.6095 7.87478 51.9376 9.04666 54.3438C13.1092 62.6095 20.1717 68.2813 28.5623 70.0001C30.531 70.3907 31.9529 70.4532 32.2498 70.1563C32.7342 69.6407 32.6717 69.297 31.8592 67.9532C30.0623 65.0001 29.031 62.5001 28.406 59.6407C28.0935 58.2032 28.0779 57.7032 28.1248 54.5313C28.2498 46.8282 28.2185 46.4063 27.2498 44.5001C26.7185 43.4532 25.2029 41.8907 24.0467 41.2032C22.3435 40.2032 22.4998 39.3126 22.4842 49.6407L22.4685 58.672L21.7029 57.1095C20.8123 55.2813 19.8279 52.3907 19.4373 50.3907C18.9998 48.2188 19.031 44.4688 19.4998 42.3595C20.2498 39.047 21.3435 36.6876 23.5935 33.5938C24.5467 32.297 24.6248 32.0313 24.2029 31.5157C23.781 30.9532 23.156 30.9532 22.6248 31.5157Z" fill="white"/>
<path d="M67.937 37.0626C67.812 37.172 67.4058 37.8283 67.0308 38.5158C65.5152 41.3439 63.3589 44.0626 61.2495 45.797C59.687 47.0939 58.4995 47.8283 55.3589 49.4845C52.1714 51.172 51.062 51.9064 50.1089 52.9689C48.7183 54.5158 47.8589 57.0001 48.0152 59.0314C48.062 59.5783 48.1245 60.047 48.1714 60.0939C48.2339 60.1564 61.2339 52.8439 63.4214 51.5158L63.9527 51.1876L63.6558 51.7033C62.8902 53.0001 61.187 55.0783 59.5464 56.7189C54.6089 61.6564 49.1089 63.5626 41.9995 62.8126L40.0933 62.6095L39.7339 63.0314C39.2808 63.5626 39.2808 63.7814 39.7183 64.297C40.0308 64.6408 40.2808 64.7189 41.4839 64.8595C43.1714 65.0626 47.6714 64.9533 48.9683 64.672C49.812 64.5001 49.8902 64.5001 50.0308 64.7814C50.1245 64.9376 50.7495 65.6251 51.4214 66.2814C55.312 70.1095 61.437 70.4064 65.2808 66.9533C67.7027 64.7658 70.7027 58.3908 71.5777 53.5158C72.0308 51.0158 72.062 46.6095 71.6558 44.297C71.2964 42.2814 70.5777 39.922 69.9058 38.4376C69.3277 37.1876 69.0464 36.8751 68.5152 36.8751C68.3277 36.8751 68.0777 36.9689 67.937 37.0626Z" fill="white"/>
</svg>
