<svg width="60" height="61" viewBox="0 0 60 61" fill="none" xmlns="http://www.w3.org/2000/svg">
<g clip-path="url(#clip0_104_563)">
<path d="M6.63281 0.675781C6.11719 0.851562 5.56641 1.34375 5.30859 1.83594C5.20312 2.03516 4.11328 5.73828 2.87109 10.0742L0.621094 17.9609H8.03906H15.457L15.5742 17.3398C15.6445 17.0117 16.4297 13.0742 17.332 8.60938L18.9492 0.5H13.0195C8.29687 0.511719 6.99609 0.546875 6.63281 0.675781Z" fill="#F7931B"/>
<path d="M22.3359 9.07812C21.3984 13.8008 20.625 17.7383 20.625 17.8086C20.625 17.9258 22.582 17.9609 30 17.9609C37.418 17.9609 39.375 17.9258 39.375 17.8086C39.375 17.7383 38.6016 13.8008 37.6641 9.07812L35.9414 0.5H30H24.0586L22.3359 9.07812Z" fill="#F7931B"/>
<path d="M42.668 8.60938C43.5703 13.0742 44.3555 17.0117 44.4258 17.3398L44.543 17.9609H51.9609H59.3789L57.1289 10.0742C55.8867 5.73828 54.7852 2.02344 54.6914 1.82422C54.4336 1.32031 53.7539 0.769531 53.2383 0.628906C52.957 0.546875 50.6602 0.5 46.9219 0.5H41.0508L42.668 8.60938Z" fill="#F7931B"/>
<path d="M0.0234375 22.3203C0.0703125 23.832 0.117188 24.2188 0.339844 24.793C0.84375 26.0938 2.01563 27.2188 3.36328 27.7227C4.00781 27.957 4.26563 27.9805 8.25 28.0156C13.7461 28.0625 14.4727 27.9336 15.832 26.668C16.6289 25.9297 16.9805 25.3555 17.2969 24.3008L17.543 23.4453L17.6133 23.9258C17.707 24.6992 18.3281 25.8711 18.9844 26.5156C19.6641 27.207 20.7539 27.7578 21.75 27.9219C22.6641 28.0742 37.3359 28.0742 38.25 27.9219C39.2461 27.7578 40.3359 27.207 41.0156 26.5156C41.6719 25.8711 42.293 24.6992 42.3867 23.9258L42.457 23.4453L42.7031 24.3008C43.0195 25.3555 43.3711 25.9297 44.168 26.668C45.5273 27.9336 46.2539 28.0625 51.75 28.0156C55.7344 27.9805 55.9922 27.957 56.6367 27.7227C57.9844 27.2188 59.1563 26.0938 59.6602 24.793C59.8828 24.2188 59.9297 23.832 59.9766 22.3203L60.0234 20.5391H30H-0.0234375L0.0234375 22.3203Z" fill="#F7931B"/>
<path d="M17.2267 28.8008C16.9571 29.1289 15.7618 29.7734 14.8243 30.1133L13.8868 30.4414L9.15246 30.4766C5.21496 30.5117 4.26574 30.4883 3.51574 30.3359C3.02356 30.2305 2.57824 30.1484 2.53137 30.1484C2.49621 30.1484 2.47277 36.5703 2.48449 44.4219L2.51965 58.707L2.87121 59.2695C3.12902 59.6914 3.39856 59.9375 3.85559 60.1719L4.47668 60.5H7.21887H9.96106L9.98449 48.9219L10.0196 37.3555L10.2775 36.8867C10.5939 36.3008 10.9571 35.9492 11.5079 35.7148C12.1642 35.4453 25.3361 35.4453 25.9923 35.7148C26.5431 35.9492 26.9064 36.3008 27.2228 36.8867L27.4806 37.3555L27.5157 48.9219L27.5392 60.5H41.5314H55.5236L56.1447 60.1719C56.6017 59.9375 56.8712 59.6914 57.129 59.2695L57.4806 58.707L57.5157 44.4219C57.5275 36.5703 57.504 30.1484 57.4689 30.1484C57.422 30.1484 56.9767 30.2305 56.4845 30.3359C55.7345 30.4883 54.7853 30.5117 50.8478 30.4766L46.1134 30.4414L45.1759 30.1133C44.2384 29.7734 43.0431 29.1289 42.7736 28.8008C42.5743 28.5547 42.5157 28.5781 42.0001 28.9883C41.3321 29.5156 40.0079 30.1133 39.0353 30.3242C37.7931 30.582 22.2306 30.582 20.9884 30.3242C19.9806 30.1133 18.8321 29.6094 18.0939 29.0469C17.4728 28.5664 17.4259 28.5547 17.2267 28.8008ZM48.4923 35.7148C49.0431 35.9492 49.4064 36.3008 49.7228 36.8867C49.9689 37.3438 49.9806 37.4727 49.9806 41.75V46.1445L49.6876 46.6719C49.5236 46.9531 49.1603 47.3516 48.8907 47.5508L48.3751 47.9023L41.5079 47.9375C36.8321 47.9609 34.4884 47.9375 34.1954 47.8438C33.6212 47.6797 33.0939 47.2227 32.7775 46.625C32.5196 46.1562 32.5196 46.0625 32.5196 41.75C32.5196 37.4727 32.5314 37.3438 32.7775 36.8867C33.0821 36.3125 33.4454 35.9609 33.9845 35.7266C34.6056 35.457 47.8478 35.457 48.4923 35.7148Z" fill="#F7931B"/>
</g>
<defs>
<clipPath id="clip0_104_563">
<rect width="60" height="60" fill="white" transform="translate(0 0.5)"/>
</clipPath>
</defs>
</svg>
