<svg width="32" height="32" viewBox="0 0 32 32" fill="none" xmlns="http://www.w3.org/2000/svg">
<path d="M15.9998 29.3332C23.3636 29.3332 29.3332 23.3636 29.3332 15.9998C29.3332 8.63604 23.3636 2.6665 15.9998 2.6665C8.63604 2.6665 2.6665 8.63604 2.6665 15.9998C2.6665 23.3636 8.63604 29.3332 15.9998 29.3332Z" fill="#1DA1F2"/>
<path fill-rule="evenodd" clip-rule="evenodd" d="M24 10.8726C23.4118 11.1339 22.7787 11.3099 22.1148 11.3894C22.7926 10.983 23.3131 10.3398 23.5579 9.5735C22.9243 9.94996 22.2209 10.2225 21.4738 10.3702C20.8749 9.73243 20.0211 9.3335 19.0777 9.3335C17.265 9.3335 15.7952 10.8033 15.7952 12.616C15.7952 12.873 15.8245 13.1236 15.8805 13.3642C13.1522 13.2276 10.7337 11.9205 9.1146 9.9345C8.83193 10.4193 8.67033 10.983 8.67033 11.5846C8.67033 12.7232 9.249 13.7279 10.1305 14.3166C9.59187 14.2996 9.08633 14.1518 8.64313 13.906V13.947C8.64313 15.5379 9.77533 16.8642 11.2761 17.1666C11.0009 17.2412 10.7107 17.2818 10.4116 17.2818C10.1999 17.2818 9.994 17.261 9.79347 17.2226C10.2111 18.5265 11.4238 19.4758 12.8599 19.5024C11.7368 20.3824 10.3215 20.9076 8.7834 20.9076C8.5178 20.9076 8.25653 20.8922 8 20.8612C9.45273 21.7924 11.1779 22.3364 13.0317 22.3364C19.0691 22.3364 22.3708 17.3346 22.3708 12.9972C22.3708 12.8548 22.3681 12.713 22.3612 12.5728C23.0033 12.1088 23.56 11.5307 24 10.8726Z" fill="white"/>
</svg>
