<svg xmlns="http://www.w3.org/2000/svg" width="60" height="61" fill="none" viewBox="0 0 60 61"><path fill="#F7931B" d="M13.9219 12.0078L1.875 18.957V21.6172C1.875 23.0938 1.88672 24.2891 1.91016 24.2891C1.94531 24.2891 4.18359 23 11.9531 18.5234C13.4648 17.6445 17.1797 15.5 20.2148 13.7539C23.9766 11.5859 25.8281 10.5781 26.0625 10.5781C26.2969 10.5781 30 12.6523 38.2734 17.4336C44.8008 21.207 50.1797 24.2891 50.2148 24.2891C50.25 24.2891 50.2617 23.0938 50.25 21.6289L50.2148 18.957L38.2031 12.0195C31.5938 8.19922 26.1328 5.08203 26.0742 5.07031C26.0039 5.07031 20.543 8.19922 13.9219 12.0078Z"/><path fill="#F7931B" d="M16.2891 18.1719L6.62109 23.7617L6.58594 37.3906L6.5625 51.0078H9.02344H11.4844V46.9062V42.8047H12.2461H13.0078V44.5391C13.0078 46.9648 12.9961 46.9531 15.6445 46.8828C17.7656 46.8359 17.6953 46.918 17.6953 44.5508V42.8047H18.5156H19.3359V46.9062V51.0078H20.2734H21.2109V46.9062V42.8047H21.9727H22.7344V44.5156V46.2266L23.0859 46.5664L23.4375 46.918L25.207 46.8828C27.5273 46.8359 27.4219 46.9414 27.4219 44.5508V42.8047H28.2422H29.0625V46.9062V51.0078H30H30.9492L30.9141 46.1914L30.8789 41.375L30.5977 41.1523C30.3398 40.9414 30 40.9297 20.9062 40.9297H11.4844V37.8828V34.8359H26.0742H40.6641V35.3047V35.7734H43.0664H45.4688V29.7617V23.75L43.2188 22.4492C41.9766 21.7344 37.6172 19.2148 33.5273 16.8594C29.4492 14.5039 26.0742 12.5703 26.0273 12.582C25.9922 12.582 21.6094 15.1016 16.2891 18.1719ZM21.9258 20.6445C22.2305 21.0195 22.207 21.5469 21.8555 21.8867C21.5859 22.168 21.5039 22.1797 20.2148 22.1797C18.9258 22.1797 18.8438 22.168 18.5742 21.8867C18.2578 21.582 18.1875 21.0547 18.4336 20.75C18.7383 20.3633 19.0312 20.3047 20.3672 20.3281C21.6094 20.3633 21.7148 20.3867 21.9258 20.6445ZM27.457 20.4336C28.0312 20.6914 28.1719 21.4414 27.7148 21.8867C27.4453 22.168 27.3633 22.1797 26.0625 22.1797C24.8086 22.1797 24.6562 22.1562 24.4102 21.9219C23.9648 21.5 24.0938 20.6445 24.6445 20.4219C25.0195 20.2695 27.1289 20.2812 27.457 20.4336ZM33.4336 20.5391C33.5859 20.668 33.7617 20.9023 33.7969 21.0664C33.8789 21.4062 33.6211 21.9922 33.3398 22.1094C32.9648 22.25 30.5391 22.1797 30.3281 22.0156C30.0234 21.793 29.8711 21.2891 30 20.9609C30.1992 20.4219 30.5391 20.3047 31.8867 20.3047C32.9531 20.3047 33.1758 20.3398 33.4336 20.5391ZM40.6641 29.0352V29.6797H26.0742H11.4844V29.0352V28.3906H26.0742H40.6641V29.0352ZM40.6641 32.2578V32.9609H26.0742H11.4844V32.2578V31.5547H26.0742H40.6641V32.2578Z"/><path fill="#F7931B" d="M33.8673 37.8007C33.2814 38.0937 33.2697 38.2343 33.3048 46.8593L33.34 54.8515L33.6212 55.1562C33.9025 55.4609 33.9259 55.4609 35.6251 55.4609H37.3361L37.5822 55.9765C38.215 57.2656 39.3283 57.9687 40.7228 57.9687C42.1173 57.9687 43.2306 57.2656 43.8634 55.9765L44.1095 55.4609H47.4142H50.7189L50.8595 55.8593C51.0587 56.4687 51.8439 57.289 52.5822 57.6523C53.4376 58.0624 54.6095 58.0859 55.4533 57.7109C56.1447 57.4062 56.9064 56.6445 57.1993 55.9765L57.4337 55.4609H58.4298C59.3322 55.4609 59.4493 55.4374 59.7072 55.1679L60.0001 54.8866V50.1406V45.4062L58.0548 42.9804C56.9533 41.621 55.9806 40.5195 55.8165 40.4491C55.6642 40.3906 54.3986 40.3437 53.0158 40.3437H50.5079V39.3359C50.5079 38.1874 50.4259 37.9531 49.9103 37.7773C49.3361 37.5781 34.2658 37.6015 33.8673 37.8007ZM56.5783 44.1406C57.6798 45.4999 58.1251 46.1445 58.1251 46.3671V46.6718H55.1486H52.1603L51.8322 46.3906L51.504 46.1093L51.4689 44.3281C51.4454 43.3554 51.4572 42.4765 51.4923 42.3827C51.5392 42.2538 51.9025 42.2187 53.297 42.2187H55.0314L56.5783 44.1406ZM41.4962 53.1757C42.5978 53.7499 42.5275 55.3671 41.3673 55.9648C40.0783 56.6327 38.6486 55.1093 39.3165 53.8085C39.6915 53.082 40.7345 52.789 41.4962 53.1757ZM54.9142 53.2226C55.2892 53.457 55.6642 54.0898 55.6642 54.5116C55.6642 55.2499 55.0548 55.9648 54.3048 56.0937C53.7423 56.2109 52.9572 55.8241 52.6759 55.2968C52.3361 54.6757 52.4884 53.8671 53.0158 53.3866C53.3673 53.0585 53.5197 52.9999 53.9884 52.9999C54.3283 52.9999 54.6915 53.082 54.9142 53.2226Z"/></svg>